# xmcd
#
# Track frame offsets: 
#        300
#        21910
#        49054
#        67197
#        93632
#        125366
#        147093
#        168423
#        194205
#        210784
#        240115
#
# Disc length: 3504 seconds
#
# Revision: 3
# Processed by: cddbd v1.5.2PL0 Copyright (c) Steve Scherf et al.
# Submitted via: ExactAudioCopy v1.0b1
#
DISCID=9b0dac0b
DTITLE=Byther Smith - Addressing The Nation With The Blues
DYEAR=1994
DGENRE=blues
TTITLE0=Hello Mrs. Brown
TTITLE1=I Was Coming Home
TTITLE2=Looking For A Woman
TTITLE3=Play The Blues On The Moon
TTITLE4=What Have I Done
TTITLE5=You Should Be Proud Of Your Daughter
TTITLE6=What Is This
TTITLE7=Addressing The Nation With The Blues
TTITLE8=Movin' On
TTITLE9=I Wish My Mother Was Here
TTITLE10=Put Your Arms Around Me
EXTD=JSP CD 254\n\nByther Smith:  guitar and vocals\nTim McKinley:  pi
EXTD=ano and keyboards\nCharles Fisher:  rhythm guitar\nManwell Burr: 
EXTD=saxophone\nBruce Feigen:  bass\nGeorge Hawkins:  drums\n\nRecord
EXTD=ed at Soto Sound, Chicago\n\nSubmitted 7/1/97\n[Jmccoy@efn.org]\n
EXTD=\n
EXTT0=
EXTT1=
EXTT2=
EXTT3=
EXTT4=
EXTT5=
EXTT6=
EXTT7=
EXTT8=
EXTT9=
EXTT10=
PLAYORDER=
